# xmcd
#
# Track frame offsets:
#	150
#	18754
#	39562
#	42149
#	65005
#	72921
#	94843
#	113401
#	125162
#	135484
#	142778
#	175268
#	192804
#
# Disc length: 2812
#
# Revision: 1
# Processed by: cddbd v1.5.1PL0 Copyright (c) Steve Scherf et al.
# Submitted via: CDex 1.51
# Normalized: r0:TRMNUM
#
DISCID=ac0afa0d
DTITLE=Plate Fork Knife Spoon - Plate Fork Knife Spoon
DYEAR=2005
DGENRE=Jazz
TTITLE0=D MotherFucker D
TTITLE1=Double Dribble
TTITLE2=Igunalude
TTITLE3=Down In It
TTITLE4=Turnulencia
TTITLE5=Creep
TTITLE6=Point
TTITLE7=Theme from "SpaceWalk"
TTITLE8=Briefcase
TTITLE9=Oyayi
TTITLE10=The Kraken
TTITLE11=Charles River
TTITLE12=Wonder
EXTD=YEAR: 2005
EXTT0=
EXTT1=
EXTT2=
EXTT3=
EXTT4=
EXTT5=
EXTT6=
EXTT7=
EXTT8=
EXTT9=
EXTT10=
EXTT11=
EXTT12=
PLAYORDER=
